<svg xmlns="http://www.w3.org/2000/svg" viewBox="0 0 297.64 87.19"><defs><style>.cls-1{fill:#505a68;}.cls-2{fill:#4b5563;}.cls-3{fill:#374151;}</style></defs><g id="Layer_2" data-name="Layer 2"><g id="OBJECTS"><path class="cls-1" d="M152.61,2c-14.37,4.3-27.4,15-31.06,28.6-8.21-3.24-17.4-5.05-25.85-2.52S80,38.49,80.34,47.3c-7.53-1.61-15.2-3.22-22.86-2.48-7.35.71-15.37,4.11-19.74,10.33A9.05,9.05,0,0,0,36,61.86c-5.89-4-13.74-4.93-20.68-4.13-5.11.59-10.3,2.34-13.41,6.76A9.85,9.85,0,0,0,.18,72.06c1.48,7.35,10.48,9.16,17.73,9.64l39,2.58c36,2.39,72.29,4.77,108.18.75,3.13-.35,6.82-1.14,7.78-4.3a5.44,5.44,0,0,0-1.6-5.4c-2.48-2.41-5.93-2.79-9.21-3.11l49.34.07c13.16,0,26.32,0,39.48-.12,13.83-.15,27.95-.55,40.92-5.35,2.73-1,5.78-2.67,5.86-5.75a5.28,5.28,0,0,0-2.9-4.62c-2.74-1.54-5.9-1.18-8.91-.8,6.55-.31,8.85-10.22,4.46-15.09s-12-5.23-18.35-3.65-12.32,4.71-18.8,5.66c-4.75-9-14.38-15.67-24.61-16.21-6.1-.32-27.61,3.5-29.41,11.19C202.56,22.89,192.35,7,178.16,2,170.31-.8,161.22-.53,152.61,2Z"/><path class="cls-2" d="M37.74,55.15A9.05,9.05,0,0,0,36,61.86c-5.89-4-13.74-4.93-20.68-4.13-5.11.59-10.3,2.34-13.41,6.76A9.85,9.85,0,0,0,.18,72.06c1.48,7.35,10.48,9.16,17.73,9.64l39,2.58c36,2.39,72.29,4.77,108.18.75,3.13-.35,6.82-1.14,7.78-4.3a5.44,5.44,0,0,0-1.6-5.4c-2.48-2.41-5.93-2.79-9.21-3.11l49.34.07c13.16,0,26.32,0,39.48-.12,13.83-.15,27.95-.55,40.92-5.35,2.73-1,5.78-2.67,5.86-5.75a5.28,5.28,0,0,0-2.9-4.62c-2.74-1.54-5.9-1.18-8.91-.8,6.55-.31,8.85-10.22,4.46-15.09s-12-5.23-18.35-3.65-12.32,4.71-18.8,5.66a31,31,0,0,0-8.2-9.78,45.26,45.26,0,0,1-18.51,19.26c-11,6-26.09,6.61-37.89,2.38a43.73,43.73,0,0,0,10.92-17.82,4.82,4.82,0,0,0-.34.94,27.46,27.46,0,0,0-1.31-16.18c-2,7.25-4.83,14.28-9.54,20.08-6.18,7.62-16.35,12.72-25.87,10.37A26.94,26.94,0,0,1,151,45.33c-10.23-9.3-14.6-24.8-10.7-37.79-9,5.48-16.18,13.58-18.74,23.1h0A34.14,34.14,0,0,0,132.2,55.36a75.46,75.46,0,0,1-45.61-.63,33.52,33.52,0,0,0,17.19,11.92A64.4,64.4,0,0,1,59,65.78c-3.95-1.57-8.08-3.91-9.48-7.92s.52-8.7,3.65-11.66c.33-.31.67-.6,1-.88C47.82,46.61,41.46,49.86,37.74,55.15Z"/><path class="cls-3" d="M284.05,55.75c7.35-.51,11.25-9.26,6.5-14.89-4.35-5.15-12.12-5.56-18.61-4a14.89,14.89,0,0,1,6.59,1.27,6.89,6.89,0,0,1,3.66,4.89,8.14,8.14,0,0,1-.63,4A14.69,14.69,0,0,1,275,54.41c-8.08,4.56-17.4,4.26-26.39,3.91C260.51,59.91,272.11,56.58,284.05,55.75Z"/><path class="cls-3" d="M169.91,74.27c2.31,1.48,3.86,4.53,2.73,7C171.43,84,168,84.71,165.07,85c-35.89,4-72.15,1.64-108.18-.75l-39-2.58c-7-.46-15.67-2.17-17.57-9C-.74,68.87,1.12,64.59,4.18,62c-1.42,2.79-.2,6.23,2,8.52S11.3,74,14.29,75c13.64,4.33,28.28,3.77,42.57,3.18A14.81,14.81,0,0,1,46,70.54c18.12,8.07,38.55,8.74,58.38,9.28,12.05.33,24.26.65,36-2.08a27,27,0,0,1-15.89-4.85C139.77,76,154.82,78.28,169.91,74.27Z"/><path class="cls-3" d="M162,72.22l49.34.07c13.16,0,26.32,0,39.48-.12,13.83-.15,27.95-.55,40.92-5.35,2.52-.93,5.31-2.42,5.79-5.06s-1.62-5-4.06-5.87c.07,2-1.69,3.69-3.39,4.76a16.35,16.35,0,0,1-5.7,1.91c-22.28,4.4-45.16,4.31-67.87,4.21-8.86,0-18.3-.25-25.63-5.22C182.39,67.76,172.6,72,162,72.22Z"/></g></g></svg>