<svg xmlns="http://www.w3.org/2000/svg" viewBox="0 0 130.37 34.53"><defs><style>.cls-1{fill:#ad330c;}.cls-2{fill:#ea580c;}</style></defs><g id="Layer_2" data-name="Layer 2"><g id="objects"><path class="cls-1" d="M11.18,4.2c.64-3.31,5.7-6,10.6-2.36,1.49,2.54-6.16,7.08-6.16,7.08S10.48,8.94,11.18,4.2Z"/><path class="cls-2" d="M16.71,3.05a11.77,11.77,0,0,0-1.58,6S21,12.61,21.46,12s1.65-6.61,1.65-8.62c-.21-1.08-2.44-2.3-2.44-2.3C23,3.77,21,5.49,16.71,3.05Z"/><path class="cls-1" d="M119.19,4.13c-.63-3.31-5.58-6-10.48-2.38-1.49,2.54,6,7.17,6,7.17S119.9,8.87,119.19,4.13Z"/><path class="cls-2" d="M122.5,15.7c-4-5-1.92-12.5-3.91-12.92.84,3.91-9.7,8.12-14.66,7.89-6.18-.29-9-5.54-4.82-6.85C94.58-1,88.32,3.19,79,5.27S68.17,1.9,65.43,1.9h-.49c-2.74,0-4.15,5.44-13.52,3.37S35.79-1,31.26,3.82c4.21,1.31,1.36,6.56-4.82,6.85-5,.23-15.5-4-14.66-7.89-2,.42.11,7.87-3.91,12.92A38,38,0,0,1,0,23.29C5.83,30.9,18,31.7,23.15,30s15.63-6.84,19.69-2.65-4.55,5.19-6.77,3.4c3.82,5.43,11,4.06,14,1.78s10-4.87,15.12,1.17c5.1-6,12.14-3.45,15.11-1.17s10.18,3.65,14-1.78c-2.22,1.79-10.83.79-6.77-3.4S102,28.29,107.22,30s17.32.9,23.15-6.71A38,38,0,0,1,122.5,15.7Z"/><path class="cls-2" d="M113.65,3.05a11.72,11.72,0,0,1,1.59,6s-5.83,3.52-6.33,2.94-1.65-6.61-1.65-8.62c.21-1.08,2.44-2.3,2.44-2.3C107.33,3.77,109.42,5.49,113.65,3.05Z"/><path class="cls-1" d="M106.68,10.38c0-.19.79-.29,2-.7a31.71,31.71,0,0,0,4.5-2c.85-.45,1.72-.87,2.38-1.28a7.63,7.63,0,0,0,1.62-1.33c.79-.86.83-1.66,1-1.67s.21.2.21.6a3.06,3.06,0,0,1-.49,1.62,6.48,6.48,0,0,1-1.68,1.78,20.88,20.88,0,0,1-2.47,1.46,16.13,16.13,0,0,1-4.88,1.72C107.52,10.79,106.67,10.55,106.68,10.38Z"/><path class="cls-1" d="M23.69,10.38c0,.17-.84.41-2.19.21a16.13,16.13,0,0,1-4.88-1.72,20.88,20.88,0,0,1-2.47-1.46,6.48,6.48,0,0,1-1.68-1.78A3.06,3.06,0,0,1,12,4c0-.4.13-.61.21-.6s.24.81,1,1.68a7.58,7.58,0,0,0,1.61,1.32c.66.41,1.53.83,2.38,1.28a31.71,31.71,0,0,0,4.5,2C22.9,10.09,23.68,10.19,23.69,10.38Z"/></g></g></svg>