<svg xmlns="http://www.w3.org/2000/svg" viewBox="0 0 35.83 140.56"><defs><style>.cls-1{fill:#a9c1cf;}.cls-2{fill:#ad330c;}.cls-3{fill:#ea580c;}.cls-4{fill:#fff;}.cls-5{fill:#161b21;}</style></defs><g id="Layer_2" data-name="Layer 2"><g id="objects"><path class="cls-1" d="M11.55,131.47s3.86,9.07,5.45,9.09,5-9,5-9l1.1-99-10.42-.12Z"/><path class="cls-2" d="M16.93,3.55a5.37,5.37,0,0,1,1.25-.13,6.28,6.28,0,0,1,1.24.15c1.13.24,4.2,19.87,3.8,25.2L18,28.71h-.22l-5.21-.06C12.29,23.32,15.8,3.76,16.93,3.55Z"/><path class="cls-3" d="M12.58,2.48c0,1.4,2.48,2.56,5.58,2.59S23.78,4,23.8,2.6,21.31,0,18.21,0,12.6,1.08,12.58,2.48Z"/><path class="cls-3" d="M.71,30.34c0,1.48,7.7,2.75,17.24,2.86s17.29-1,17.31-2.47S27.55,28,18,27.87.72,28.88.71,30.34Z"/><path class="cls-4" d="M15.86,8.59c.3-.22,1.38.74,2.81,1.73s2.67,1.68,2.58,2-1.74.2-3.34-.95S15.56,8.8,15.86,8.59Z"/><path class="cls-4" d="M15.44,12.21c.31-.12,1.33,1.21,3,2.6.79.69,1.53,1.29,2.08,1.69s.91.65.88.84-.56.24-1.3,0a7.74,7.74,0,0,1-2.54-1.55,8.35,8.35,0,0,1-1.85-2.3C15.31,12.79,15.28,12.28,15.44,12.21Z"/><path class="cls-4" d="M14.85,17.72c.1-.15.6,0,1.26.42a23.41,23.41,0,0,1,2.34,1.79,17.07,17.07,0,0,0,2.26,1.62c.61.35,1.05.51,1,.7s-.53.34-1.35.17A6.56,6.56,0,0,1,17.62,21a16.8,16.8,0,0,1-2.12-2.11C15,18.27,14.74,17.87,14.85,17.72Z"/><path class="cls-4" d="M14.42,22.25c.27-.26,1.65.8,3.41,1.88a15.74,15.74,0,0,0,2.3,1.2c.6.25,1,.35,1.05.54s-.45.42-1.24.37a6.22,6.22,0,0,1-2.79-1C15.19,24.06,14.16,22.48,14.42,22.25Z"/><path class="cls-2" d="M0,30.16c0,2.34.66,4.25,1.52,4.26s1.56-1.89,1.58-4.24-.66-4.25-1.52-4.26S0,27.81,0,30.16Z"/><path class="cls-2" d="M35.83,30.43c0,2.35-.72,4.25-1.58,4.24s-1.54-1.91-1.52-4.26.73-4.25,1.58-4.24S35.85,28.08,35.83,30.43Z"/><path class="cls-5" d="M17.14,138.67c-.36,0-.48-23.12-.26-51.62s.69-51.62,1.05-51.62.49,23.12.27,51.63S17.51,138.67,17.14,138.67Z"/></g></g></svg>